<svg width="58" height="58" viewBox="0 0 58 58" fill="none" xmlns="http://www.w3.org/2000/svg">
<g filter="url(#filter0_d_1_7104)">
<rect x="10" y="6" width="38" height="38" rx="19" fill="white"/>
<g clip-path="url(#clip0_1_7104)">
<path d="M41 29.2422C41 25.744 38.6429 22.6876 35.319 21.7665C35.11 16.8972 31.0839 13 26.1641 13C21.1109 13 17 17.1109 17 22.1641C17 23.8109 17.4384 25.4144 18.2708 26.8221L17.0337 31.2943L21.506 30.0574C22.8 30.8226 24.2598 31.2536 25.7664 31.3186C26.6872 34.6427 29.7438 37 33.2422 37C34.6385 37 35.9965 36.6281 37.1896 35.9215L40.9661 36.9661L39.9215 33.1896C40.6281 31.9965 41 30.6385 41 29.2422ZM21.728 28.5369L19.0506 29.2775L19.7913 26.6002L19.6224 26.3361C18.8268 25.0914 18.4062 23.6487 18.4062 22.1641C18.4062 17.8864 21.8864 14.4062 26.1641 14.4062C30.4418 14.4062 33.9219 17.8864 33.9219 22.1641C33.9219 26.4418 30.4418 29.9219 26.1641 29.9219C24.6794 29.9219 23.2369 29.5013 21.992 28.7057L21.728 28.5369ZM38.9494 34.9494L36.9627 34.3997L36.6974 34.5724C35.6689 35.2405 34.4739 35.5938 33.2422 35.5938C30.4927 35.5938 28.0766 33.816 27.2206 31.2668C31.4309 30.7814 34.7814 27.4309 35.267 23.2204C37.816 24.0766 39.5938 26.4927 39.5938 29.2422C39.5938 30.4739 39.2405 31.6689 38.5724 32.6974L38.3997 32.9627L38.9494 34.9494Z" fill="#2695FB"/>
<path d="M25.4609 25.7031H26.8672V27.1094H25.4609V25.7031Z" fill="#2695FB"/>
<path d="M27.5703 20.0312C27.5703 20.4306 27.4077 20.7992 27.1125 21.0693L25.4609 22.581V24.2969H26.8672V23.2003L28.062 22.1068C28.6431 21.5748 28.9766 20.8184 28.9766 20.0312C28.9766 18.4803 27.715 17.2188 26.1641 17.2188C24.6132 17.2188 23.3516 18.4803 23.3516 20.0312H24.7578C24.7578 19.2558 25.3886 18.625 26.1641 18.625C26.9395 18.625 27.5703 19.2558 27.5703 20.0312Z" fill="#2695FB"/>
</g>
</g>
<defs>
<filter id="filter0_d_1_7104" x="0" y="0" width="58" height="58" filterUnits="userSpaceOnUse" color-interpolation-filters="sRGB">
<feFlood flood-opacity="0" result="BackgroundImageFix"/>
<feColorMatrix in="SourceAlpha" type="matrix" values="0 0 0 0 0 0 0 0 0 0 0 0 0 0 0 0 0 0 127 0" result="hardAlpha"/>
<feOffset dy="4"/>
<feGaussianBlur stdDeviation="5"/>
<feComposite in2="hardAlpha" operator="out"/>
<feColorMatrix type="matrix" values="0 0 0 0 0.14902 0 0 0 0 0.584314 0 0 0 0 0.984314 0 0 0 0.1 0"/>
<feBlend mode="normal" in2="BackgroundImageFix" result="effect1_dropShadow_1_7104"/>
<feBlend mode="normal" in="SourceGraphic" in2="effect1_dropShadow_1_7104" result="shape"/>
</filter>
<clipPath id="clip0_1_7104">
<rect width="24" height="24" fill="white" transform="translate(17 13)"/>
</clipPath>
</defs>
</svg>
